<?xml version="1.0" encoding="utf-8"?>
<!-- Generator: Adobe Illustrator 22.0.1, SVG Export Plug-In . SVG Version: 6.00 Build 0)  -->
<svg version="1.1" id="Layer_1" xmlns="http://www.w3.org/2000/svg" xmlns:xlink="http://www.w3.org/1999/xlink" x="0px" y="0px"
	 viewBox="0 0 756.1 187.3" style="enable-background:new 0 0 756.1 187.3;" xml:space="preserve">
<style type="text/css">
	.st0{fill:#168F9B;}
</style>
<g>
	<path class="st0" d="M93.3,0.1c2.6,0,4.8-0.1,6.9,0c2.9,0.2,5.8,0.4,8.7,1.1c0.3,0.1,0.5,0.1,0.8,0.1c1.9,0.1,3.7,0.6,5.6,1.2
		c1,0.3,2,0.4,3,0.6c2.5,0.6,5,1.5,7.4,2.3c2.3,0.7,4.5,1.8,6.7,2.8c3.2,1.4,6.3,3.1,9.3,4.8c3.4,2,6.6,4.2,9.7,6.6
		c3.4,2.7,6.7,5.5,9.7,8.6c1.7,1.7,3.3,3.6,4.8,5.4c1.7,2,3.3,4.1,4.8,6.2c2.7,3.8,5.1,7.7,7.1,11.8c1.5,3,2.8,6.1,4,9.2
		c0.7,1.7,1.2,3.4,1.8,5.1c0.6,2,1.1,4.1,1.7,6.1c0.4,1.5,0.1,3.1,1,4.5c0.1,0.1,0.1,0.2,0.1,0.3c0.1,1.2,0.4,2.4,0.5,3.5
		c0.4,4.9,1.1,9.8,0.8,14.7c-0.1,1.9,0.1,3.8-0.2,5.7c-0.4,2.4-0.1,4.9-1,7.2c0,0.1,0,0.2,0,0.3c0.2,1.9-0.6,3.6-0.9,5.4
		c-0.2,1.2-0.6,2.4-0.9,3.6c-0.6,2.5-1.5,4.8-2.2,7.3c-0.4,1.3-1,2.6-1.5,3.9c-0.6,1.7-1.4,3.3-2.2,4.9c-1.5,3.3-3.4,6.5-5.3,9.6
		c-4.8,7.8-10.7,14.7-17.6,20.8c-2.7,2.4-5.5,4.6-8.4,6.6c-4.6,3.2-9.5,6-14.6,8.4c-2.3,1.1-4.6,2.1-6.9,2.9
		c-2.4,0.8-4.9,1.7-7.4,2.3c-2.4,0.5-4.7,1.2-7.1,1.8c-1.4,0.3-2.8,0.5-4.2,0.6c-3,0.2-5.9,1-8.9,0.9c-3.5-0.1-7,0-10.6-0.1
		c-1.4,0-2.7,0-4-0.5c-0.4-0.2-0.8-0.1-1.2-0.2c-2.5-0.1-5-0.7-7.4-1.1c-2.4-0.4-4.7-1.2-7.1-1.7c-1.7-0.4-3.2-1.1-4.9-1.6
		c-1.9-0.6-3.7-1.5-5.6-2.1c-2.2-0.8-4.3-1.9-6.5-3c-3.1-1.5-5.9-3.3-8.8-5.1c-1.6-1-3.1-2.2-4.7-3.3c-4.8-3.5-9.2-7.6-13.2-11.9
		c-1.6-1.7-3-3.5-4.5-5.4c-2.7-3.3-5-6.9-7.1-10.5c-1.3-2.3-2.6-4.6-3.7-7c-0.9-2.1-1.9-4.2-2.7-6.3c-0.9-2.4-1.8-4.8-2.5-7.3
		c-0.3-1.2-0.4-2.5-1.1-3.7c-0.5-0.7-0.5-1.8-0.6-2.7c-0.2-1.7-0.9-3.4-0.8-5.1c0-0.9-0.5-1.6-0.6-2.4c-0.7-6.5-0.9-13.1-0.6-19.6
		c0.9-2.3,0.1-4.9,1.1-7.2c0.1-0.2,0.1-0.5,0.1-0.8c0-2,0.8-3.9,1.1-5.8c0.3-2.2,1.1-4.2,1.7-6.3C4.9,63.7,5.8,61,7,58.3
		c0.7-1.6,1.5-3.2,2.1-4.8c0.9-2.5,2.4-4.7,3.7-7c1.7-3,3.5-5.8,5.6-8.6c4-5.2,8.3-10.2,13.3-14.5c4.1-3.6,8.4-6.9,13.1-9.6
		c2.9-1.7,5.9-3.4,8.9-4.9c2.2-1.1,4.5-2,6.8-2.9c2.1-0.8,4.3-1.5,6.5-2.2c1.7-0.5,3.5-0.8,5.2-1.4c2.5-0.8,5.2-0.9,7.7-1.7
		c0.1,0,0.3,0,0.5-0.1C84.9,0.4,89.3-0.2,93.3,0.1z M94,8.6C94,8.6,94,8.6,94,8.6c-2.5,0-5,0-7.6,0c-0.4,0-0.7,0-1.1,0.1
		c-2.1,0.7-4.4,0.5-6.6,1c-1.6,0.3-3.1,0.7-4.7,1c-0.9,0.1-1.8,0.2-2.6,0.6c-2.4,1.1-4.9,1.6-7.4,2.5c-2.4,0.9-4.8,1.9-7.1,3
		c-2.9,1.4-5.7,3.1-8.5,4.8c-5,3-9.6,6.7-13.8,10.7c-2.6,2.4-5,5-7.2,7.8c-1.6,2-3.1,4-4.5,6.1c-2.5,3.7-4.5,7.6-6.6,11.5
		c-0.9,1.8-1.7,3.7-2.4,5.5c-0.8,2.1-1.6,4.2-2.1,6.4c-0.5,2.2-1.3,4.2-1.6,6.5c-0.4,2.2-1,4.4-1.1,6.7c0,0.8-0.1,1.6-0.3,2.3
		c-0.3,1.1-0.4,2.2-0.4,3.3c0,4.7-0.3,9.4,0.5,14.1c0.4,2.5,0.6,5.1,1.1,7.6c0.6,2.9,1.4,5.8,2.2,8.7c0.6,2.2,1.5,4.3,2.3,6.4
		c1.2,3.3,2.8,6.4,4.6,9.5c2.9,5.1,6.2,10,10.1,14.4c1.4,1.5,2.6,3.2,4.2,4.6c2.5,2.2,4.9,4.6,7.6,6.7c3.2,2.5,6.6,4.8,10.1,6.9
		c2.5,1.5,5,2.9,7.7,4c2.4,1,4.7,2.1,7.2,2.8c1.5,0.4,3,0.8,4.4,1.4c2.2,0.9,4.5,1.1,6.7,1.7c2.3,0.6,4.8,0.8,7.1,1
		c4.1,0.4,8.2,0.6,12.3,0.5c3.2-0.1,6.4-0.3,9.6-0.7c2.8-0.3,5.5-1,8.3-1.6c1.9-0.4,3.8-1,5.6-1.6c3.5-1.2,6.9-2.5,10.2-4
		c3.2-1.5,6.4-3.2,9.4-5.2c2.4-1.6,4.8-3.3,7.1-5c2.5-2,4.8-4.2,7.3-6.3c2.2-1.9,4-4.3,6-6.5c1.6-1.8,3.1-3.9,4.4-6
		c1.3-2.2,2.7-4.4,4.1-6.6c1.4-2.2,2.4-4.6,3.6-7c0.8-1.7,1.3-3.6,2.1-5.3c1.1-2.4,1.7-4.9,2.5-7.4c1-3,1.5-6.2,1.9-9.3
		c0.4-2.4,0.7-4.8,0.8-7.2c0-2.2,0-4.4,0.1-6.6c0.2-3.8-0.5-7.5-0.8-11.3c0-0.2-0.1-0.4-0.1-0.6c-0.6-1.7-0.7-3.6-1.1-5.4
		c-0.3-1.2-0.4-2.5-0.8-3.6c-1-2.4-1.4-4.9-2.4-7.2c-0.8-1.9-1.4-3.9-2.3-5.8c-1.1-2.4-2.4-4.8-3.7-7.1c-1.8-3.2-3.9-6.3-6.2-9.3
		c-2.8-3.6-5.8-7-9.1-10.2c-1-0.9-2-1.8-3-2.7c-1.6-1.5-3.4-2.9-5.2-4.2c-2.7-1.9-5.5-3.7-8.3-5.4c-2.9-1.7-5.9-3.2-9-4.5
		c-2.5-1-5-2.2-7.7-2.8c-2-0.5-3.9-1.2-5.8-1.7c-2.1-0.5-4.3-0.8-6.4-1.2c-2-0.4-4-0.5-6.1-0.7C98.8,8.4,96.4,8.6,94,8.6z"/>
	<path class="st0" d="M229.7,138.7c-6,0-12.1,0-18.1,0c-2.1,0-2.3-0.3-2.1-2.4c0.1-0.6,0.2-1,1-1.1c1.2-0.2,2.5-0.4,3.7-0.6
		c2.5-0.5,4.1-1.8,4.7-4.8c0.7-4.1,0.6-8.2,0.6-12.2c0-16.9,0-33.8,0-50.7c0-2.1-0.4-4.1-0.7-6.1c-0.3-1.9-2.3-3.5-4.4-3.6
		c-1.7-0.1-3.4-0.9-5.1-0.7c-0.5,0.1-0.8-0.3-0.9-0.7c-0.3-1.6-0.3-2.9,2-3c1.2-0.1,2.4-0.2,3.6-0.2c3,0,6.1-0.4,9.1-0.5
		c3-0.1,6-0.1,9-0.1c3.6,0,7.1-0.1,10.7,0.1c3.1,0.1,6.1,0.4,9.1,1.2c1.7,0.4,3.4,0.8,5.1,1.4c4.2,1.6,7.6,4.1,9.8,8.1
		c1.1,2,1.5,4,2,6.2c0.4,2.1,0.2,4,0,6c-0.7,6.1-4.2,10.1-9.2,13c-0.8,0.5-1.7,1-2.6,1.4c-0.5,0.2-0.8,0.5-0.8,1c0,0.6,0.5,0.9,1,1
		c2.2,0.5,4.3,1.1,6.3,2.1c3.9,2,7.1,4.7,9.2,8.6c0.9,1.7,1.4,3.5,2.3,5.2c0.1,0.1,0.1,0.3,0.1,0.5c0.2,2.5,0.9,5,0.6,7.5
		c-0.4,3.4-1,6.7-2.6,9.7c-1.8,3.2-4.3,5.9-7.4,8c-2.3,1.5-4.7,2.5-7.2,3.6c-0.6,0.3-1.3,0.3-1.9,0.5c-1.5,0.3-3,0.9-4.5,1.2
		c-7.2,1.2-14.5,0.5-21.7,0.6c-0.2,0-0.4,0-0.6,0C229.7,138.6,229.7,138.7,229.7,138.7z M238.2,94.6c-1.5,0-3,0-4.6,0
		c-2.9,0-3.3,1.1-3.3,3.4c0.1,7-0.1,14,0,20.9c0,3.4,0.1,6.8,1.5,10c0.7,1.6,1.7,2.9,3.2,3.8c2,1.3,4.3,1.7,6.7,1.8
		c3.2,0.2,6.3-0.3,9.4-1.1c2.9-0.8,5.3-2.1,7.5-4.1c2.9-2.7,4.3-6.2,4.7-9.9c0.3-2.9,0.4-5.9-0.5-8.9c-0.6-2-1.2-4-2.2-5.8
		c-1.8-3.1-4.3-5.4-7.4-7.1c-1.6-0.9-3.2-1.5-5-1.9c-2.1-0.5-4.1-1.1-6.2-1.1C240.7,94.6,239.4,94.6,238.2,94.6z M230.3,73.7
		C230.3,73.7,230.3,73.7,230.3,73.7c0,4.4,0,8.7,0,13.1c0,0.6,0,1.3,0.1,1.9c0.2,0.8,0.6,1.2,1.5,1.3c1.5,0.3,2.9,0.1,4.4,0
		c2.4-0.1,4.9,0.1,7.3-0.6c1.6-0.4,3.3-0.7,4.9-1.3c2.4-1,4.5-2.2,6-4.4c0.9-1.3,1.5-2.5,1.9-4c0.5-1.9,0.6-3.8,1-5.7
		c0.3-1.5-0.7-2.8-0.6-4.3c0-1.3-0.5-2.5-1-3.6c-1.3-2.7-3.1-5.1-5.8-6.8c-2.4-1.4-4.9-2.4-7.6-2.8c-2.9-0.4-5.9-0.2-8.8-0.1
		c-1,0.1-1.8,0.6-2.6,1.2c-0.7,0.5-0.6,1.4-0.7,2.2c-0.1,0.4,0,0.8,0,1.3C230.3,65.3,230.3,69.5,230.3,73.7z"/>
	<path class="st0" d="M386.7,72.1c0-4,0-8.1,0-12.1c0-2.1-0.6-3.9-2.8-5c-0.7-0.3-1.1-1.1-1.9-1.2c-0.2,0-0.3-0.3-0.3-0.5
		c0-0.3,0-0.5-0.1-0.8c-0.1-2,0-2.1,1.9-2.7c2.1-0.6,4.1-1.3,6.1-2.1c1.7-0.6,3.3-1.4,4.9-2.2c1.5-0.7,2.8,0.1,2.7,1.7
		c-0.2,2.3,0.2,4.7-0.5,7c-0.2,0.6-0.1,1.3-0.1,1.9c0,23.1,0,46.2,0,69.3c0.6,2.3,0.3,4.8,1.2,7c0.5,1,1.1,1.7,2.3,1.6
		c1.3-0.1,2.6,0.2,3.8-0.6c0.2-0.2,0.6-0.1,0.9-0.2c1.4-0.2,2,0.4,2,1.8c0,1.1-0.6,2-1.6,2.3c-0.8,0.3-1.7,0.5-2.6,0.6
		c-2.6,0.5-5.1,0.8-7.6,1.7c-1,0.4-2,0.4-3,0.7c-1,0.3-1.9,0.8-3,0.9c-0.4,0-0.7,0.7-1.2,0.2c-0.6-0.5-1.2-0.9-1.2-1.7
		c0-1.2,0-2.3,0-3.5c0-0.4,0-0.7,0-1.1c-0.1-0.6-0.4-0.7-0.9-0.5c-0.2,0.1-0.3,0.2-0.5,0.4c-2.3,1.6-4.8,3-7.4,3.9
		c-1.4,0.5-2.9,1.1-4.5,1c-1.3-0.1-2.5,0.7-3.8,0.5c-2.1-0.4-4.2-0.4-6.3-1.1c-1.2-0.4-2.5-0.7-3.7-1.2c-2.7-1.2-5.1-2.9-7.1-5.1
		c-2-2.1-3.6-4.5-4.7-7.3c-0.6-1.4-0.9-2.8-1.3-4.2c-1-3.8-0.6-7.6-0.4-11.4c0.1-1.5,0.6-3,1-4.5c0.5-1.8,1.3-3.5,2.1-5.1
		c2.1-3.9,5-7.1,8.6-9.6c2.4-1.7,4.9-3,7.7-3.9c2.4-0.8,4.8-1.6,7.4-1.6c1,0,2-0.1,3-0.3c1-0.3,2.1-0.2,3.1,0
		c1.2,0.2,2.4,0.4,3.6,0.4c0.9,0,1.6,0.4,2.4,0.6c1.4,0.3,1.6,0.1,1.6-1.3C386.8,80.5,386.8,76.3,386.7,72.1
		C386.7,72.1,386.7,72.1,386.7,72.1z M386.7,113.2C386.7,113.2,386.8,113.2,386.7,113.2c0-4.6,0-9.1,0.1-13.7c0.1-2.8-1.2-5-3.3-6.7
		c-1.8-1.5-3.9-2.5-6.2-3.1c-2.8-0.8-5.4-0.3-8,0.5c-2.1,0.6-3.9,1.7-5.6,3.2c-1.9,1.7-3.4,3.7-4.5,6c-0.6,1.3-1,2.7-1.4,4.1
		c-0.7,2.3-1,4.6-1,6.9c-0.1,2.7,0.4,5.3,1.1,7.9c0.5,2,1.1,3.9,2.1,5.7c1.6,2.9,3.7,5.4,6.5,7.1c2.1,1.2,4.2,2.4,6.8,2.4
		c0.3,0,0.7,0,0.9,0.2c1.1,0.6,2.1,0.3,3.2,0.1c0.4-0.1,0.8-0.2,1.2-0.3c2.4-0.3,4.6-1.2,6.5-2.7c1-0.7,1.6-1.7,1.6-3
		C386.7,122.9,386.7,118,386.7,113.2z"/>
	<path class="st0" d="M468.9,171.5c0-0.6,0-1.2,0-1.7c0-1.1,0.3-1.4,1.3-1.6c0.6-0.1,1.3-0.2,1.9-0.1c1,0.1,2-0.4,2.8-0.8
		c1.2-0.5,1.8-1.7,1.8-3c0.1-1.5,0.2-2.9,0.2-4.4c0-20,0-39.9,0-59.9c0-1,0-2-0.1-3c-0.1-1-0.5-1.8-1.4-2.5
		c-0.9-0.7-1.7-1.3-2.6-1.9c-0.8-0.5-0.7-1.3-0.7-2.1c0-0.8,0.5-1,1.1-1.3c2.7-1.1,5.3-2.6,7.9-4c1.2-0.6,2.4-1.4,3.5-2.2
		c0.7-0.5,1.3-0.4,1.9-0.1c0.7,0.3,0.6,0.9,0.6,1.5c-0.1,0.8-0.1,1.7-0.3,2.5c-0.2,0.7-0.2,1.5-0.3,2.2c-0.2,1.7,0.4,2.4,2.3,1.4
		c1.9-1,3.7-2,5.6-2.8c1.7-0.7,3.4-1.2,5.1-1.8c1.7-0.5,3.5-0.4,5.2-0.9c0.5-0.1,1-0.1,1.6-0.1c4.4,0.4,8.5,1.3,12.1,4
		c2.7,2,4.7,4.5,6.3,7.6c1,2,1.8,4.2,2.3,6.3c0.6,3.1,1.2,6.3,0.5,9.5c-0.1,0.4-0.2,0.7-0.2,1.1c-0.1,2.7-1,5.2-1.8,7.7
		c-1,2.9-2.6,5.5-4.5,7.9c-2.5,3.1-5.6,5.7-9.2,7.6c-2.5,1.3-5,2.1-7.7,2.8c-1.8,0.5-3.7,0.3-5.4,0.8c-1.7,0.5-3.4,0.5-5,0.2
		c-1.5-0.3-3-0.3-4.5-0.4c-0.2,0-0.4,0-0.6,0c-0.8,0-1.3,0.5-1.4,1.2c-0.1,0.7-0.1,1.4-0.1,2c0,5.8,0,11.7,0,17.5
		c0,1.1,0.1,2.2,0.1,3.3c0.1,1.8,1.4,3.1,3.1,3.5c1.7,0.5,3.4,0.5,5.1,0.6c0.6,0,1.1,0.3,1.6,0.5c0,0.6,0.1,1.2,0.1,1.8
		c0,0.6-0.1,1.2-1,1.3c-0.2,0-0.3,0.2-0.5,0.3c-0.8-0.1-1.6-0.1-2.5,0c-0.5-0.6-1.2-0.5-1.9-0.5c-5.8-0.1-11.7-0.2-17.6,0
		c-0.6,0-1.3-0.1-1.7,0.5c-0.8,0-1.6,0-2.4,0C469.5,171.8,469.3,171.6,468.9,171.5z M487.1,112.3c0,4.9,0,9.4,0,14
		c0,2.4,0.9,4.4,2.8,5.8c1.5,1.2,3,2.2,4.9,2.7c1.8,0.4,3.6,0.9,5.5,1.1c1,0.1,1.7-0.5,2.6-0.6c2.9-0.2,5.3-1.5,7.3-3.4
		c3.2-3.1,5.1-7.1,6-11.4c0.6-2.6,0.8-5.4,0.8-8.1c0-3.1-0.5-6-1.5-8.9c-0.8-2.2-1.9-4.3-3.4-6.1c-0.9-1.1-1.9-2.1-3.2-2.9
		c-1.4-0.8-2.7-1.5-4.3-2.1c-1.9-0.7-3.8-0.9-5.7-0.9c-2.7,0-5.3,0.7-7.7,1.8c-2.2,1-3.8,2.5-4,5.2C487,103.3,487.2,108,487.1,112.3
		z"/>
	<path class="st0" d="M686.3,113.2c0,4.8,0,9.6,0,14.3c0,1.7,0.4,3.2,0.8,4.8c0.3,1.3,1.3,2.3,2.8,2.3c1.4,0.1,2.6,0.7,4,0.7
		c0.9,0,1,0.8,1,1.5c0,1.1-0.3,1.7-1.1,1.8c-0.5,0.1-0.9,0.1-1.4,0.1c-6.8-0.4-13.5-0.1-20.3-0.2c-0.4,0-0.7,0.1-1.1,0.1
		c-2.1,0.2-2.8-0.6-2.5-2.6c0.1-0.5,0.3-0.9,0.8-0.8c1.2,0.1,2.2-0.6,3.3-0.7c1.6-0.1,2.7-0.8,3.3-2.6c0.4-1.1,0.5-2.1,0.5-3.2
		c0-8.9,0.1-17.9-0.1-26.8c-0.1-3.1-1.3-5.9-3.7-7.9c-1.5-1.2-3.2-1.8-5-2.2c-2.3-0.5-4.6-0.5-6.8,0.1c-3.4,0.9-6.6,2.2-8.2,5.7
		c-0.6,1.3-1,2.6-1,4.1c0,8.9,0,17.9,0,26.8c0,1.4,0.5,2.7,0.8,4c0.3,1.2,1.4,2,2.6,2.1c1.2,0.1,2.3,0.7,3.5,0.7
		c0.4,0,0.8,0.3,0.9,0.7c0.1,0.6,0.2,1.3,0,1.9c-0.3,0.9-1.2,1-1.9,0.9c-3-0.3-6.1-0.2-9.1-0.2c-3.6,0-7.1,0-10.7,0
		c-0.9,0-1.9,0.3-2.8,0.1c-0.9-0.2-1.4-0.9-1.4-1.9c0-1,0.5-1.4,1.5-1.6c1.6-0.3,3.2-0.4,4.7-1.1c0.8-0.3,1.2-0.8,1.4-1.5
		c0.5-1.8,0.9-3.5,0.9-5.4c-0.1-9.3-0.1-18.7,0-28c0-2.7-1.1-4.6-3.3-5.9c-1.3-0.8-1.8-1.9-1.3-3.4c0.1-0.3,0.2-0.4,0.5-0.5
		c3.3-1,6.3-2.7,9.4-4.2c0.9-0.4,1.7-1,2.6-1.4c1.2-0.7,2.3,0,2.2,1.3c-0.2,1.6,0,3.1-0.1,4.7c-0.1,1.5,0.7,2.2,2.3,1.3
		c1.2-0.7,2.4-1.4,3.6-2c2-1.1,4.1-2,6.3-2.8c2.2-0.8,4.6-1.2,6.9-1.2c3.6,0,7.1,0.6,10.1,3c2.4,1.9,3.9,4.4,4.8,7.4
		c0.8,2.5,0.6,5.1,0.7,7.6C686.4,106.3,686.3,109.8,686.3,113.2z"/>
	<path class="st0" d="M591,112.7c0.2,2.1-0.2,4.6-0.8,7c-1.2,5-3.5,9.6-7.3,13.1c-2.8,2.6-5.9,4.6-9.6,5.8c-2.1,0.7-4.2,1.3-6.4,1.4
		c-1.2,0.1-2.5,0.4-3.7,0.4c-2.1,0-4.2-0.3-6.2-0.7c-2.5-0.5-5-1.3-7.2-2.7c-2.7-1.5-5-3.4-7.1-5.7c-1.4-1.6-2.5-3.4-3.5-5.3
		c-0.9-1.8-1.5-3.7-2-5.6c-1-3.7-1.2-7.5-0.6-11.2c0.7-4.4,2-8.7,4.7-12.4c2.4-3.4,5.4-6.2,9.1-8.3c2.5-1.4,5.2-2.2,7.9-3
		c0.4-0.1,0.8-0.1,1.2-0.1c1,0,2-0.1,3-0.4c0.7-0.2,1.5-0.2,2.2-0.1c1.7,0.2,3.5,0.3,5.1,0.6c2.2,0.4,4.4,1.1,6.5,2.1
		c3.5,1.8,6.6,4.1,9,7.3c2,2.6,3.4,5.4,4.4,8.4C590.6,106.3,591,109.2,591,112.7z M579.2,114.2c0.2-3.2,0.2-6.4-0.7-9.5
		c-0.8-2.6-1.6-5.2-3-7.6c-0.9-1.5-2-2.9-3.2-4.1c-1.7-1.6-3.7-2.7-6.1-3.3c-2.8-0.7-5.4-0.6-8,0.5c-2.7,1.1-4.7,3.1-6.3,5.6
		c-1.9,2.9-2.8,6.1-3.4,9.4c-0.5,2.8-0.5,5.7-0.3,8.6c0.1,1.9,0,3.9,0.7,5.9c0.5,1.4,0.8,3,1.3,4.4c1.1,3.4,3,6.4,5.7,8.8
		c2.3,2,4.9,3.4,8.1,3.2c1.6-0.1,3.2,0,4.8-0.6c2.5-0.8,4.4-2.1,6-4.1c1.5-1.9,2.4-4.1,3.2-6.3c0.6-1.7,1-3.5,1.2-5.3
		C579.4,117.9,579.2,116.1,579.2,114.2z"/>
	<path class="st0" d="M336.9,112.2c0,0.6,0,1.2,0,1.7c0,2.5-0.4,4.8-1.2,7.2c-0.4,1.2-0.8,2.4-1.3,3.6c-0.8,2.1-2,3.8-3.3,5.6
		c-1.7,2.4-3.9,4.3-6.5,5.8c-2.3,1.4-4.8,2.5-7.5,3.3c-1.5,0.4-3,0.5-4.5,0.7c-1,0.1-1.9,0.5-2.9,0.5c-2.2,0-4.2-0.8-6.4-0.6
		c-5.8-1.5-11.1-4-15-8.8c-1.4-1.8-2.6-3.7-3.6-5.8c-0.8-1.7-1.3-3.4-1.7-5.1c-0.7-3.2-1.2-6.5-0.7-9.8c0.6-4.3,1.6-8.4,3.9-12.1
		c1.2-1.9,2.4-3.7,4.2-5.1c0.8-0.7,1.4-1.5,2.2-2.2c2.5-1.9,5.1-3.4,8.1-4.4c2.2-0.7,4.4-1,6.6-1.4c2.8-0.6,5.6-0.1,8.3,0.3
		c3,0.5,5.9,1.7,8.6,3.3c3.3,1.9,5.9,4.5,8,7.6c1.4,2.1,2.4,4.4,3.2,6.8C336.7,106.2,337,109.1,336.9,112.2z M293.9,111.7
		c0.4,2.1,0,4.8,0.9,7.3c0.5,1.6,0.8,3.4,1.3,5.1c1.1,3.2,2.9,6,5.3,8.4c1.8,1.7,4,2.9,6.3,3.3c2.6,0.4,5.4,0.6,8-0.6
		c2.3-1.1,4.2-2.6,5.6-4.7c2-3,3.1-6.3,3.6-9.8c0.5-3.5,0.8-6.9,0.3-10.5c-0.4-2.8-0.9-5.7-1.7-8.4c-1-3-2.5-5.8-4.6-8.1
		c-2.2-2.4-4.9-3.9-8.1-4.3c-2.9-0.4-5.8,0-8.4,1.7c-1.7,1.2-3.3,2.5-4.4,4.3c-1.1,1.8-2.1,3.7-2.7,5.9c-0.4,1.5-0.7,3.1-1.1,4.7
		C293.9,107.6,294.1,109.5,293.9,111.7z"/>
	<path class="st0" d="M438.3,125.3c1.2-1.4,1.6-2.9,2.4-4.3c1.9-3.7,3.4-7.6,5.2-11.4c1.1-2.4,2-4.8,3.1-7.2
		c1.1-2.5,1.9-5.1,2.7-7.7c0.2-0.5,0.1-1.1,0.2-1.7c0-0.6-0.2-1-0.7-1.3c-0.6-0.4-1.3-0.8-2-0.8c-1.2,0-2.4-0.4-3.5-0.6
		c-0.9-0.1-1.1-0.7-1.3-1.4c-0.2-0.7,0.3-1.3,0.6-1.9c0.1-0.2,0.6-0.2,0.9-0.2c3.3,0,6.6,0.1,9.9,0.1c3.4,0,6.7-0.1,10.1-0.1
		c1.6,0,2.2,0.7,1.9,2.3c-0.1,0.4-0.3,0.8-0.7,0.9c-0.7,0.2-1.4,0.6-2.1,0.7c-2.7,0.3-4.3,2.1-5.7,4.1c-2.8,3.9-4.5,8.2-6.6,12.5
		c-0.8,1.7-1.8,3.4-2.6,5.1c-1.1,2.2-2.1,4.4-3.2,6.5c-1.6,3.4-3.3,6.8-4.9,10.2c-1.7,3.5-3.3,7.1-5,10.7c-1.5,3.1-3.1,6.2-4.5,9.3
		c-1.8,3.9-3.5,7.9-5.4,11.8c-1,2.2-1.8,4.5-3.3,6.5c-1.6,2.2-3.6,3.6-6.4,3.5c-1.1,0-2.3,0.1-3.4-0.4c-1.5-0.7-2.5-1.8-2.8-3.5
		c-0.1-0.6-0.6-1.1-0.6-1.8c0-2.3,1.5-4.2,3.6-5c0.8-0.3,1.6-0.4,2.4-0.4c0.7,0,1.4-0.1,2,0c2.1,0.2,3.3-1.1,4.4-2.6
		c1.8-2.8,3.4-5.6,4.9-8.6c1.4-2.8,2.8-5.7,3.4-8.8c0.4-1.9,0.3-3.8-0.3-5.7c-0.6-2.2-1.4-4.3-2.2-6.5c-0.8-2.2-1.5-4.4-2.5-6.6
		c-0.6-1.4-1-2.8-1.5-4.2c-0.5-1.5-1.1-3-1.6-4.5c-0.8-2.1-1.4-4.3-2.3-6.4c-0.9-2.1-1.5-4.4-2.5-6.5c-0.6-1.2-0.9-2.6-1.4-3.9
		c-1.2-2.7-3.2-4.4-6.3-4.6c-0.9-0.1-1.7-0.5-2.5-0.8c-0.3-0.1-0.4-0.3-0.4-0.6c0-0.2,0-0.4,0-0.6c-0.1-1.8,0.1-2,1.9-2
		c7.3,0.1,14.6,0.2,21.9,0c0.6,0,1.3-0.2,1.6,0.4c0.4,0.8,0.3,1.6,0.1,2.5c0,0.1-0.2,0.3-0.3,0.3c-0.9,0.1-1.7,0.9-2.7,0.8
		c-0.9-0.1-1.7,0.4-2.6,0.6c-0.6,0.2-0.8,0.6-0.8,1.2c0,0.3,0,0.6,0.1,0.9c0.4,1.6,0.8,3.2,1.4,4.6c0.4,1,0.7,2,1,3.1
		c0.5,1.6,1.2,3.2,1.7,4.8c0.7,2.3,1.5,4.6,2.3,6.9c0.6,1.9,1.4,3.8,2.1,5.7C436.3,120.8,437.1,123,438.3,125.3z"/>
	<path class="st0" d="M706.5,112.6c0-5.6,0-11.2,0-16.9c0-0.5,0-1.1-0.2-1.6c-0.3-1.1-0.8-1.5-2-1.5c-1.2,0-2.3,0-3.5,0
		c-1.1,0-1.4-0.3-1.5-1.4c-0.1-1.3,0.1-1.7,1.2-2c3-0.9,5.9-2.1,8.2-4.4c1.8-1.8,3.2-4,4.4-6.2c0.5-0.9,1.3-1.2,2.2-0.9
		c0.7,0.3,1.2,0.7,1.1,1.6c-0.1,1.7,0,3.5,0,5.2c0,0.4,0,0.7,0,1.1c0,0.7,0.4,1,1.1,1.1c1,0,2,0.1,3,0.1c3.8,0,7.7,0,11.5,0
		c1.6,0,2.1,0.5,2.2,2.1c0,0.6,0,1.3,0,1.9c-0.1,1.5-0.5,1.8-2,1.8c-4.3,0-8.5,0-12.8,0c-0.5,0-0.9,0-1.4,0c-1.1,0-1.5,0.3-1.6,1.4
		c-0.1,0.5-0.1,0.9-0.1,1.4c0,9.3,0,18.7,0.1,28c0,2.6,0.5,5.2,2.1,7.4c1.3,1.8,3,2.8,5.2,3.1c0.8,0.1,1.6,0,2.4,0.1
		c2,0.1,3.7-0.7,5.3-1.8c0.7-0.5,1.4-0.5,2-0.1c0.6,0.3,0.8,0.8,0.7,1.5c0,0.4-0.2,0.6-0.5,0.9c-1.5,1.7-3.4,3.1-5.5,3.9
		c-1.7,0.7-3.4,1.5-5.4,1.5c-1,0-2,0.6-3.1,0.4c-2.8-0.4-5.7-0.5-8.1-2c-2.2-1.4-3.7-3.3-4.4-5.9c-0.8-2.8-0.6-5.6-0.6-8.4
		C706.5,120.3,706.5,116.5,706.5,112.6C706.5,112.6,706.5,112.6,706.5,112.6z"/>
	<path class="st0" d="M616,107.6c0,7.5,0,14.9,0,22.4c0,0.9,0.2,1.7,0.5,2.6c0.5,1.4,1.6,2.1,2.9,2.1c1.3,0.1,2.5,0.8,3.8,0.7
		c0.3,0,0.5,0.2,0.5,0.5c0.1,0.7,0.2,1.5,0,2.2c-0.1,0.4-0.4,0.6-0.8,0.6c-0.5,0-1,0.1-1.6,0.1c-7.2-0.2-14.4-0.2-21.6,0
		c-0.2,0-0.3,0-0.5,0c-1.7,0-2.5-1.3-1.8-2.9c0.2-0.5,0.6-0.5,1.1-0.5c1.4,0,2.7-0.6,4.1-0.7c1.3-0.2,2.3-1.3,2.5-2.7
		c0.3-2.5,0.8-4.9,0.7-7.4c-0.1-8-0.1-16,0-23.9c0-1.5-0.5-3-0.7-4.5c-0.2-1.2-1.4-1.7-2.2-2.5c-0.1-0.1-0.3-0.1-0.4-0.2
		c-1.7-1.1-1.9-1.5-1.3-3.4c0.1-0.3,0.2-0.5,0.5-0.6c2.3-0.5,4.3-1.8,6.4-2.6c1.9-0.8,3.8-1.9,5.6-2.9c0.6-0.4,1.1-0.6,1.7-0.1
		c0.6,0.4,0.7,0.8,0.6,1.6c-0.2,2.8-0.2,5.6-0.2,8.3C616,98.2,616,102.9,616,107.6C616,107.6,616,107.6,616,107.6z"/>
	<path class="st0" d="M609.8,65.6c-4,0-6.7-2.8-6.8-6.6c-0.1-4.3,3.6-7.2,7.1-7.1c4,0.1,6.5,2.4,6.7,6.7
		C616.9,63.1,614.1,65.6,609.8,65.6z"/>
	<path class="st0" d="M747.2,63.8c5.4-0.2,8.9,4.1,8.9,8.6c-0.1,5.6-3.9,9-9.2,8.9c-5-0.1-8.6-3.8-8.7-8.9
		C738.2,67.9,742.3,63.4,747.2,63.8z M743.1,67.9c2-0.3,3.9-0.6,5.8-0.1c1.7,0.5,2.2,2.7,1,4c-1.1,1.2-1.1,1.2-0.1,2.6
		c0.3,0.4,0.5,0.9,0.8,1.3c0.3,0.4,0.6,0.7,1,1c0.7,0.5,1.1,0.4,1.6-0.4c1.1-2,1.5-3.9,0.7-6.2c-1.4-4-5.6-6.2-9.5-4.5
		c-2.6,1.1-4,3.2-4.4,5.8c-0.5,3.5,1.7,7.8,5.5,8.2c2.1,1.1,3.8,0,5.6-0.8c0.4-0.2,0.8-0.4,0.8-1.1c-2.2,0-3.3-1.4-4.1-3.1
		c-0.1-0.3-0.4-0.6-0.7-0.8c-0.6-0.4-1.1-0.2-1.2,0.6c-0.2,1.2,0.2,2.2,1.5,3.1c-1.6,0-2.9,0-4.6,0c1.3-0.8,1.2-1.8,1.2-2.8
		c0-1.5,0-2.9,0-4.4C744.2,69.2,744.2,68.4,743.1,67.9z M746,70.3c0,0.4,0,0.7,0,1.1c-0.1,0.7,0.3,0.9,0.9,0.9
		c0.7,0,1.2-0.4,1.5-0.9c0.3-0.4,0.1-2-0.2-2.2c-0.5-0.5-1.1-0.9-1.8-0.7c-0.7,0.2-0.3,0.9-0.4,1.3C746,69.9,746,70.1,746,70.3z"/>
	<path class="st0" d="M98.3,51.9c13.3,0,26.6,0,39.9,0c2.1,0,4.1,0.2,6,0.8c3,1,5.8,2.2,8.4,4.2c1.8,1.4,3.5,2.8,4.8,4.5
		c1.6,2,2.9,4.1,3.7,6.6c0.5,1.6,0.9,3.2,1.3,4.8c0.5,1.9,0.4,3.7,0.5,5.6c0.1,2-0.7,3.9-1,5.9c-0.4,2-1.3,3.8-2.3,5.6
		c-2.2,4-5.3,7.1-9.2,9.5c-1.5,0.9-3.1,1.8-4.7,2.3c-1.3,0.4-2.7,0.7-4,1c-2.1,0.5-4.3,0.5-6.4,0.4c-2.8,0-5.5-0.7-8.2-1.6
		c-1.4-0.5-2.7-1-3.7-2.1c-0.1-0.2-0.4-0.3-0.4-0.4c-0.2-0.4-0.8-0.9-0.3-1.4c0.4-0.4,1-0.8,1.8-0.6c1.5,0.4,2.9,0.9,4.4,1
		c3.9,0.4,7.7-0.2,11.1-2.2c3.9-2.3,6.8-5.4,8.7-9.6c0.7-1.6,1.1-3.3,1.4-5c0.3-1.4,0.5-2.8,0.5-4.2c-0.1-3.5-1-6.7-2.7-9.7
		c-1.3-2.2-3-4-4.9-5.7c-1.7-1.5-3.6-2.6-5.6-3.4c-1.1-0.4-2.3-0.7-3.4-1c-3.6-1.1-7.3-0.8-10.9-0.6c-2.7,0.2-4.4,1.8-4.3,4.5
		c0,22.5,0,45,0,67.4c0,0.9-0.1,1.9,0.3,2.8c0.5,1,1.2,1.7,2.3,2.2c2.1,0.8,4.2,1.3,6.3,2c1.4,0.4,2.8,1,4.3,1.3
		c0.8,0.2,1.2,0.8,1.2,1.4c-0.1,0.8-0.7,1-1.3,1.1c-0.5,0.1-1,0.1-1.6,0.1c-24.3,0-48.5,0-72.8,0c-2.5,0-5-0.4-7.5-1
		c-2.3-0.5-4.5-1.4-6.6-2.2c-3.6-1.5-6.8-3.5-9.6-6.1c-2.3-2.2-4.1-4.7-5.3-7.5c-0.5-1.1-0.7-2.4-1.1-3.5c-1-2.5-0.6-4.9-0.7-7.4
		c-0.1-1.8,0.5-3.5,1-5.2c0.6-2,1.5-4,2.8-5.8c1.3-1.9,2.8-3.5,4.6-5c2.6-2.2,5.7-3.7,8.8-5.2c0.3-0.2,0.7-0.1,1.1-0.2
		c0.4-0.1,0.5-0.4,0.6-0.7c0.1-0.3-0.2-0.4-0.5-0.5c-3.2-1.6-5.7-3.9-7.8-6.9c-1.3-1.8-2.3-3.7-3-5.8c-1.1-3.6-1.4-7.2,0-10.8
		c1-2.5,2.3-4.8,4.4-6.5c1.8-1.4,3.7-2.7,5.9-3.6c1.9-0.8,3.8-1.5,5.8-2.1c3.2-1,6.4-1.3,9.7-1.3C72.5,51.9,85.4,51.9,98.3,51.9
		C98.3,51.9,98.3,51.9,98.3,51.9z M106,95.5C106,95.5,106,95.5,106,95.5c0-8.6,0-17.2,0-25.8c0-2.8,0-5.7,0-8.5
		c0-0.8-0.1-1.5-0.6-2.2c-1.1-1.7-2.9-2.1-4.7-2.4c-2-0.4-4.1-0.2-6.1-0.1c-1.6,0.1-3,0.7-4.4,1.3c-1.3,0.6-1.7,1.7-2,3
		c-0.1,0.5,0,0.9,0,1.4c0,21.8,0,43.6,0,65.3c0,0.9,0,1.8,0,2.7c0.1,1.3,0.6,2.5,1.9,3.1c1.7,0.8,3.5,1.5,5.5,1.5
		c2.3,0,4.6,0,6.8-0.6c2.2-0.6,3.7-2.2,3.7-4.4C106,118.3,106,106.9,106,95.5z M75.6,114.1c0-5.1,0-10.3,0-15.4
		c0-1.9-0.9-2.9-2.7-3.5c-2.2-0.8-4.6-0.2-6.8-1.1c-4,0.1-8-0.7-12,0.6c-1.4,0.5-2.9,0.8-4.2,1.5c-4.1,2.4-7.4,5.5-9.3,10
		c-1.2,2.7-1.9,5.5-2,8.4c0,2.5,0,5,0.9,7.3c1,2.7,2.5,5.1,4.6,7.2c3.7,3.7,8.3,5.2,13.3,5.6c1.4,0.1,2.7,0.1,4.1,0.1
		c1.7,0,3.4,0.1,5-0.2c1.9-0.4,3.9-0.5,5.8-1.1c1.9-0.6,3.3-1.9,3.3-3.9C75.6,124.3,75.6,119.2,75.6,114.1z M75.6,73.7
		C75.6,73.7,75.6,73.7,75.6,73.7c0-2.5,0-4.9,0-7.4c0-2,0-4.1,0-6.1c0-1.4-0.7-2.3-1.8-2.9c-0.9-0.5-2-0.8-3.1-0.8
		c-2.4,0.1-4.7-0.1-7.1-0.1c-1.6,0-3.2-0.2-4.7,0.3c-1.6,0.5-3.3,0.5-4.9,1c-1.7,0.6-3.4,1.2-4.8,2.4c-2.9,2.4-4.4,5.5-4.5,9.2
		c0,2,0,4,0.5,6.1c0.6,2.3,1.4,4.5,2.7,6.5c1.6,2.5,3.7,4.6,6.5,5.7c1.3,0.5,2.7,1,4.1,1.3c1.9,0.5,3.8,1,5.8,1.1
		c1.7,0.1,3.3,0.1,4.9,0.5c1.7,0.4,3.3-0.2,4.7-0.8c1.1-0.4,1.6-1.6,1.6-3C75.6,82.4,75.6,78,75.6,73.7z"/>
</g>
</svg>
